<svg width="20" height="20" viewBox="0 0 20 20" fill="none" xmlns="http://www.w3.org/2000/svg">
<path d="M17.6705 10.7959C17.7751 10.6914 17.8581 10.5674 17.9147 10.4308C17.9714 10.2942 18.0005 10.1478 18.0005 9.99998C18.0005 9.85214 17.9714 9.70575 17.9147 9.56917C17.8581 9.4326 17.7751 9.30853 17.6705 9.20404L12.0457 3.57924C11.8347 3.3682 11.5485 3.24963 11.25 3.24963C10.9515 3.24963 10.6653 3.3682 10.4543 3.57924C10.2432 3.79028 10.1247 4.07652 10.1247 4.37498C10.1247 4.67344 10.2432 4.95968 10.4543 5.17072L10.4543 5.17075L14.1592 8.87498H3.125C2.82663 8.87498 2.54048 8.99351 2.3295 9.20449C2.11853 9.41546 2 9.70161 2 9.99998C2 10.2983 2.11853 10.5845 2.3295 10.7955C2.54048 11.0065 2.82663 11.125 3.125 11.125H14.1592L10.4543 14.8292L10.4543 14.8292C10.2432 15.0403 10.1247 15.3265 10.1247 15.625C10.1247 15.9234 10.2432 16.2097 10.4543 16.4207C10.6653 16.6318 10.9515 16.7503 11.25 16.7503C11.5485 16.7503 11.8347 16.6318 12.0457 16.4207L17.6705 10.7959ZM17.6705 10.7959L17.3174 10.4424L17.6707 10.7957L17.6705 10.7959Z" fill="#2E2B2A" stroke="#2E2B2A"/>
</svg>
