<svg width="16" height="16" viewBox="0 0 16 16" fill="none" xmlns="http://www.w3.org/2000/svg">
<path d="M14.3539 13.6462L11.2245 10.5175C12.1315 9.42856 12.5838 8.03186 12.4873 6.61795C12.3908 5.20404 11.7528 3.88177 10.7062 2.92622C9.65963 1.97067 8.28492 1.4554 6.86808 1.4876C5.45125 1.5198 4.10137 2.09699 3.09926 3.0991C2.09714 4.10122 1.51995 5.4511 1.48775 6.86793C1.45555 8.28477 1.97082 9.65947 2.92637 10.7061C3.88193 11.7527 5.20419 12.3906 6.6181 12.4871C8.03201 12.5837 9.42871 12.1314 10.5176 11.2244L13.6464 14.3537C13.6928 14.4002 13.748 14.437 13.8087 14.4622C13.8694 14.4873 13.9344 14.5003 14.0001 14.5003C14.0658 14.5003 14.1309 14.4873 14.1916 14.4622C14.2523 14.437 14.3074 14.4002 14.3539 14.3537C14.4003 14.3073 14.4372 14.2521 14.4623 14.1914C14.4875 14.1307 14.5004 14.0657 14.5004 14C14.5004 13.9343 14.4875 13.8692 14.4623 13.8085C14.4372 13.7478 14.4003 13.6927 14.3539 13.6462ZM2.50014 6.99999C2.50014 6.10997 2.76406 5.23994 3.25853 4.49992C3.753 3.7599 4.4558 3.18313 5.27807 2.84253C6.10033 2.50194 7.00513 2.41282 7.87805 2.58646C8.75096 2.76009 9.55279 3.18867 10.1821 3.81801C10.8115 4.44735 11.24 5.24917 11.4137 6.12208C11.5873 6.995 11.4982 7.8998 11.1576 8.72206C10.817 9.54433 10.2402 10.2471 9.50021 10.7416C8.76019 11.2361 7.89016 11.5 7.00014 11.5C5.80707 11.4987 4.66325 11.0241 3.81962 10.1805C2.976 9.33688 2.50147 8.19306 2.50014 6.99999Z" fill="#2E2B2A"/>
</svg>
