<svg width="16" height="16" viewBox="0 0 16 16" fill="none" xmlns="http://www.w3.org/2000/svg">
<path d="M14.5315 13.4694L11.5634 10.5C12.4533 9.3403 12.8688 7.8855 12.7256 6.43072C12.5823 4.97594 11.8911 3.63011 10.792 2.66625C9.69301 1.70239 8.26849 1.19266 6.80746 1.24048C5.34642 1.2883 3.95828 1.89007 2.92462 2.92373C1.89096 3.95739 1.28918 5.34554 1.24137 6.80657C1.19355 8.26761 1.70327 9.69212 2.66713 10.7912C3.631 11.8902 4.97682 12.5814 6.4316 12.7247C7.88639 12.8679 9.34119 12.4524 10.5009 11.5625L13.4715 14.5338C13.5413 14.6035 13.6241 14.6589 13.7153 14.6966C13.8064 14.7344 13.9041 14.7538 14.0028 14.7538C14.1014 14.7538 14.1991 14.7344 14.2903 14.6966C14.3814 14.6589 14.4643 14.6035 14.534 14.5338C14.6038 14.464 14.6591 14.3812 14.6969 14.29C14.7346 14.1989 14.7541 14.1012 14.7541 14.0025C14.7541 13.9038 14.7346 13.8061 14.6969 13.715C14.6591 13.6238 14.6038 13.541 14.534 13.4713L14.5315 13.4694ZM2.75089 7.00001C2.75089 6.15944 3.00015 5.33774 3.46715 4.63883C3.93414 3.93992 4.5979 3.39519 5.37449 3.07352C6.15107 2.75185 7.00561 2.66768 7.83003 2.83167C8.65444 2.99566 9.41172 3.40043 10.0061 3.9948C10.6005 4.58918 11.0052 5.34645 11.1692 6.17087C11.3332 6.99529 11.2491 7.84982 10.9274 8.62641C10.6057 9.403 10.061 10.0668 9.36206 10.5338C8.66316 11.0007 7.84146 11.25 7.00089 11.25C5.87408 11.2488 4.79375 10.8007 3.99697 10.0039C3.20019 9.20715 2.75205 8.12682 2.75089 7.00001Z" fill="#403B3A" fill-opacity="0.8"/>
</svg>
